<svg viewBox="0 0 275 275" xmlns="http://www.w3.org/2000/svg"><rect fill="#530577" height="275" width="275"/><path d="m60.5 30.164h154v154h-154z" fill="#fafafa"/><path d="m181.17212 95.63942v48.52458h-15.77053v-35.30151zm-.007-7.278703.007-18.196717-43.67204 36.3934-43.6722-36.3934v18.196717l43.6722 36.393383zm-87.337239 7.277474v48.524639h15.770469v-35.30173z" fill="#530577" stroke-width="1.2132"/><path d="m60.5 209.129h12.057003l8.367445 18.745 8.415219-18.745h12.033113v35.026h-8.956656v-25.619l-8.462993 18.886h-6.004615l-8.465979-18.886v25.62h-8.981542zm77.17219 6.827v21.372h3.39594q5.80755 0 8.85912-2.745 3.07546-2.745 3.07546-7.976 0-5.209-3.05057-7.93-3.05158-2.721-8.88401-2.721zm-9.47422-6.827h9.99077q8.36745 0 12.45214 1.15 4.11057 1.125 7.03773 3.847 2.58379 2.37 3.83885 5.466 1.25507 3.097 1.25507 7.015 0 3.965-1.25407 7.085-1.25606 3.097-3.83985 5.466-2.95304 2.722-7.0865 3.871-4.13446 1.126-12.40337 1.126h-9.99077zm60.09392 0h23.55067v6.639h-15.99538v5.42q1.08288-.282 2.16476-.423 1.10777-.164 2.28918-.164 6.71824 0 10.45856 3.214 3.74032 3.19 3.74032 8.915 0 5.677-4.08469 8.891-4.0608 3.215-11.2956 3.215-3.12523 0-6.20069-.587-3.05257-.563-6.07926-1.736v-7.109q3.0028 1.643 5.68512 2.464 2.7072.82 5.09392.82 3.44472 0 5.41441-1.594 1.99258-1.62 1.99258-4.364 0-2.768-1.99358-4.364-1.96869-1.595-5.4144-1.595-2.04135 0-4.35442.516-2.31406.493-4.9715 1.548z" fill="#fafafa" stroke-width=".997645"/></svg>
