<svg xmlns="http://www.w3.org/2000/svg" viewBox="0 0 256 256"><path fill="#fafafa" stroke="#000" d="M36 12v232h184V12z"/><path fill="#8c8c8c" d="M55 44v2h12v-2zm14 0v2h13v-2zm15 0v2h10v-2zm12 0v2h4v-2zm6 0v2h10v-2zm12 0v2h26v-2zm28 0v2h21v-2zm23 0v2h6v-2zM55 56v2h20v-2zm23 0v2h9v-2zm11 0v2h4v-2zm6 0v2h8v-2zm10 0v2h9v-2zm11 0v2h13v-2zm15 0v2h18v-2zm20 0v2h13v-2zm15 0v2h2v-2zM55 69v2h16v-2zm19 0v2h27v-2zm29 0v2h13v-2zm15 0v2h12v-2zm13 0v2h11v-2zm13 0v2h17v-2zm18 0v2h27v-2zM55 81v2h24v-2zm26 0v2h24v-2zm26 0v2h10v-2zm11 0v2h23v-2zm25 0v2h17v-2zm19 0v2h6v-2zm8 0v2h3v-2zm5 0v2h9v-2zM55 94v2h8v-2zm11 0v2h32v-2zm-11 20v3h12v-3zm14 0v3h13v-3zm15 0v3h10v-3zm12 0v3h4v-3zm6 0v3h10v-3zm12 0v3h26v-3zm28 0v3h21v-3zm23 0v3h6v-3zm8 0v3h14v-3zM55 127v2h22v-2zm24 0v2h22v-2zm24 0v2h8v-2zm10 0v2h21v-2zm23 0v2h27v-2zm29 0v2h10v-2zM55 139v3h24v-3zm26 0v3h24v-3zm26 0v3h9v-3zm11 0v3h23v-3zm25 0v3h15v-3zm19 0v3h6v-3zm8 0v3h3v-3zm5 0v3h9v-3zM55 152v2h20v-2zm23 0v2h9v-2zm11 0v2h4v-2zm6 0v2h8v-2zm10 0v2h9v-2zm11 0v2h13v-2zm15 0v2h18v-2zm20 0v2h13v-2zm15 0v2h2v-2zM55 173v2h16v-2zm19 0v2h27v-2zm29 0v2h13v-2zm15 0v2h12v-2zm14 0v2h10v-2zm12 0v2h17v-2zm19 0v2h26v-2zM55 185v2h20v-2zm23 0v2h9v-2zm11 0v2h4v-2zm6 0v2h8v-2zm10 0v2h9v-2zm11 0v2h13v-2zm15 0v2h18v-2zm20 0v2h13v-2zm15 0v2h2v-2zM55 198v2h21v-2zm24 0v2h6v-2zm8 0v2h14v-2zm16 0v2h22v-2zm24 0v2h14v-2zm16 0v2h3v-2zm5 0v2h19v-2zm22 0v2h9v-2zM55 210v2h21v-2zm24 0v2h9v-2zm11 0v2h14v-2zm16 0v2h15v-2zm17 0v2h6v-2zm8 0v2h4v-2zm6 0v2h9v-2z"/></svg>