<svg xmlns="http://www.w3.org/2000/svg" fill-rule="evenodd" clip-rule="evenodd" image-rendering="optimizeSpeed" shape-rendering="geometricPrecision" text-rendering="geometricPrecision" viewBox="0 0 256 256"><path fill="#fafafa" stroke="#000" d="M36 12h184v232H36z"/><g fill="#4d5965"><path d="M67 86a10 10 0 0 0-10 10v64a10 10 0 0 0 10 10h122a10 10 0 0 0 10-10V96a10 10 0 0 0-10-10zm0 8h122c2 0 3 1 3 2v64c0 1-1 2-3 2H67c-2 0-3-1-3-2V96c0-1 1-2 3-2z"/><path d="M153 105h12v22h13l-19 24-19-24h13zm-40 0h12v44h-12v-25l-11 12-13-12v25H78v-44h11l13 13z"/></g></svg>