<svg xmlns="http://www.w3.org/2000/svg" viewBox="0 0 462 339"><path fill="#41cd52" d="M64 0h398v275l-64 64H0V63L64 0Z"/><path fill="#fff" d="M122 71c16-10 34-12 52-12 17 0 35 3 49 13 10 7 17 18 21 30 7 19 9 39 10 59 0 20-1 41-8 60-4 13-13 24-24 33l24 39-30 14-26-43c-12 2-24 2-36 0-14-1-28-6-39-15-8-7-14-17-17-28-6-17-8-36-8-54 0-20 1-40 7-59 5-14 12-28 25-37ZM294 71h32v42h41l-1 27h-41v69c1 6 0 13 3 19 2 4 8 5 12 6l25-1 2 25c-17 3-34 6-51 1-7-2-13-7-16-14-5-11-6-24-6-37v-68h-22v-27h22V71Z"/><path fill="#41cd52" d="M161 88c10-2 21-1 30 3 8 3 15 9 18 17 6 11 8 24 9 37 1 17 1 34-1 51-2 10-4 21-11 29s-18 11-28 12c-11 1-22 0-32-5-6-3-10-8-13-14-4-7-6-14-7-22-4-24-5-49 1-73 2-9 5-18 12-25 5-6 14-9 22-10Z"/></svg>